<svg xmlns="http://www.w3.org/2000/svg" width="48" height="34.555" viewBox="0 0 48 34.555">
  <g id="Iconly_Bold_Add_User" data-name="Iconly/Bold/Add User" transform="translate(-4 -2.5)">
    <g id="Add_User" data-name="Add User" transform="translate(4 2.5)">
      <path id="Add_User_2" data-name="Add User_2" d="M22,20.784c6.611,0,11.91-4.068,11.91-9.142S28.611,2.5,22,2.5,10.09,6.568,10.09,11.642,15.389,20.784,22,20.784Zm0,4.477c-9.71,0-18,1.176-18,5.876s8.24,5.917,18,5.917c9.708,0,18-1.176,18-5.877S31.76,25.261,22,25.261ZM46.955,15.39h2.887A1.962,1.962,0,0,1,52,17.048a1.962,1.962,0,0,1-2.158,1.658H46.955v2.141a2.233,2.233,0,0,1-4.315,0V18.706H39.758A1.96,1.96,0,0,1,37.6,17.048a1.96,1.96,0,0,1,2.158-1.658H42.64V13.251a2.233,2.233,0,0,1,4.315,0Z" transform="translate(-4 -2.5)" fill="#373737" fill-rule="evenodd"/>
    </g>
  </g>
</svg>
